<svg xmlns="http://www.w3.org/2000/svg" viewBox="0 0 880 460" font-family="Inter, "Helvetica Neue", Arial, sans-serif">
<rect width="880" height="460" fill="#0F172A"/>
<text x="40" y="50" fill="#E2E8F0" font-size="22" font-weight="700">AI Cost Library — Dashboard</text>
<text x="40" y="74" fill="#94A3B8" font-size="13">v2.1.0 · last updated 2026-06-26</text>
<rect x="40" y="100" width="130" height="40" rx="6" fill="#1E293B"/>
<rect x="40" y="100" width="3" height="40" fill="#3B82F6"/>
<text x="54" y="117" fill="#94A3B8" font-size="11">Entries</text>
<text x="54" y="133" fill="#E2E8F0" font-size="15" font-weight="600">60</text>
<rect x="184" y="100" width="130" height="40" rx="6" fill="#1E293B"/>
<rect x="184" y="100" width="3" height="40" fill="#10B981"/>
<text x="198" y="117" fill="#94A3B8" font-size="11">Sources</text>
<text x="198" y="133" fill="#E2E8F0" font-size="15" font-weight="600">217</text>
<rect x="328" y="100" width="130" height="40" rx="6" fill="#1E293B"/>
<rect x="328" y="100" width="3" height="40" fill="#F59E0B"/>
<text x="342" y="117" fill="#94A3B8" font-size="11">Glossary</text>
<text x="342" y="133" fill="#E2E8F0" font-size="15" font-weight="600">59</text>
<rect x="472" y="100" width="130" height="40" rx="6" fill="#1E293B"/>
<rect x="472" y="100" width="3" height="40" fill="#3B82F6"/>
<text x="486" y="117" fill="#94A3B8" font-size="11">Claims</text>
<text x="486" y="133" fill="#E2E8F0" font-size="15" font-weight="600">29</text>
<text x="40" y="170" fill="#E2E8F0" font-size="13" font-weight="600">Entries per category</text>
<line x1="372.0" y1="150" x2="372.0" y2="402" stroke="#334155" stroke-width="1" stroke-dasharray="2,3"/>
<line x1="484.0" y1="150" x2="484.0" y2="402" stroke="#334155" stroke-width="1" stroke-dasharray="2,3"/>
<line x1="596.0" y1="150" x2="596.0" y2="402" stroke="#334155" stroke-width="1" stroke-dasharray="2,3"/>
<line x1="708.0" y1="150" x2="708.0" y2="402" stroke="#334155" stroke-width="1" stroke-dasharray="2,3"/>
<text x="40" y="167" fill="#E2E8F0" font-size="12">Model Optimization</text>
<rect x="260" y="150" width="560" height="24" rx="3" fill="#3B82F6"/>
<text x="828" y="167" fill="#94A3B8" font-size="12">19</text>
<text x="40" y="205" fill="#E2E8F0" font-size="12">Runtime Optimization</text>
<rect x="260" y="188" width="412" height="24" rx="3" fill="#3B82F6"/>
<text x="680" y="205" fill="#94A3B8" font-size="12">14</text>
<text x="40" y="243" fill="#E2E8F0" font-size="12">Training Optimization</text>
<rect x="260" y="226" width="176" height="24" rx="3" fill="#3B82F6"/>
<text x="444" y="243" fill="#94A3B8" font-size="12">6</text>
<text x="40" y="281" fill="#E2E8F0" font-size="12">Infrastructure</text>
<rect x="260" y="264" width="294" height="24" rx="3" fill="#3B82F6"/>
<text x="562" y="281" fill="#94A3B8" font-size="12">10</text>
<text x="40" y="319" fill="#E2E8F0" font-size="12">Agentic Economics</text>
<rect x="260" y="302" width="176" height="24" rx="3" fill="#3B82F6"/>
<text x="444" y="319" fill="#94A3B8" font-size="12">6</text>
<text x="40" y="357" fill="#E2E8F0" font-size="12">Finops Governance</text>
<rect x="260" y="340" width="88" height="24" rx="3" fill="#3B82F6"/>
<text x="356" y="357" fill="#94A3B8" font-size="12">3</text>
<text x="40" y="395" fill="#E2E8F0" font-size="12">Market Economics</text>
<rect x="260" y="378" width="58" height="24" rx="3" fill="#3B82F6"/>
<text x="326" y="395" fill="#94A3B8" font-size="12">2</text>
<text x="40" y="370" fill="#E2E8F0" font-size="13" font-weight="600">Classification breakdown</text>
<rect x="60" y="380" width="506" height="28" fill="#10B981"/>
<text x="313.0" y="398" fill="#0F172A" font-size="11" font-weight="600" text-anchor="middle">Practical: 40</text>
<rect x="566" y="380" width="215" height="28" fill="#F59E0B"/>
<text x="673.5" y="398" fill="#0F172A" font-size="11" font-weight="600" text-anchor="middle">Emerging: 17</text>
<rect x="781" y="380" width="38" height="28" fill="#3B82F6"/>
<rect x="60" y="415" width="12" height="12" rx="2" fill="#10B981"/>
<text x="78" y="426" fill="#94A3B8" font-size="11">Practical (40)</text>
<rect x="210" y="415" width="12" height="12" rx="2" fill="#F59E0B"/>
<text x="228" y="426" fill="#94A3B8" font-size="11">Emerging (17)</text>
<rect x="360" y="415" width="12" height="12" rx="2" fill="#3B82F6"/>
<text x="378" y="426" fill="#94A3B8" font-size="11">Theoretical (3)</text>
<text x="40" y="442" fill="#94A3B8" font-size="11">Bilingual (Arabic/English) · Evidence-based · No-hype policy · github.com/faresrafat3/ai-cost-library</text>
</svg>